<svg width="14" height="14" viewBox="0 0 14 14" fill="none" xmlns="http://www.w3.org/2000/svg">
<path d="M5.00016 0.666672V2.00001H9.00016V0.666672H10.3335V2.00001H13.0002C13.3684 2.00001 13.6668 2.29849 13.6668 2.66667V13.3333C13.6668 13.7015 13.3684 14 13.0002 14H1.00016C0.631976 14 0.333496 13.7015 0.333496 13.3333V2.66667C0.333496 2.29849 0.631976 2.00001 1.00016 2.00001H3.66683V0.666672H5.00016ZM12.3335 7.33334H1.66683V12.6667H12.3335V7.33334ZM6.3335 8.66667V11.3333H3.00016V8.66667H6.3335ZM3.66683 3.33334H1.66683V6H12.3335V3.33334H10.3335V4.66667H9.00016V3.33334H5.00016V4.66667H3.66683V3.33334Z" fill="#4D4E56"/>
</svg>
