<svg id="logo" xmlns="http://www.w3.org/2000/svg" width="100%" viewBox="0 0 232 61">
  <rect id="Retângulo_1489" data-name="Retângulo 1489" width="100%"  fill="none"/>
  <g id="Grupo_3357" data-name="Grupo 3357" transform="translate(17.001 4.978)">
    <g id="Grupo_3356" data-name="Grupo 3356" transform="translate(0 31.387)">
      <path id="Caminho_4167" data-name="Caminho 4167" d="M105.7-16.729h9.177a12.539,12.539,0,0,1,3.671.5,8.036,8.036,0,0,1,2.814,1.469,6.437,6.437,0,0,1,1.79,2.371A7.732,7.732,0,0,1,123.78-9.2v.062a7.649,7.649,0,0,1-.688,3.334,6.823,6.823,0,0,1-1.913,2.416,8.274,8.274,0,0,1-2.921,1.469,13.277,13.277,0,0,1-3.686.489h-2.937V4.684H105.7ZM114.45-6.084a3.773,3.773,0,0,0,2.493-.753,2.524,2.524,0,0,0,.9-2.045v-.062a2.539,2.539,0,0,0-.9-2.107,3.937,3.937,0,0,0-2.524-.724h-2.784v5.69Z" transform="translate(29.913 0.18)" fill="#008acd"/>
      <path id="Caminho_4168" data-name="Caminho 4168" d="M128.221-11.507h-6.412V-16.7h18.747v5.19h-6.412V4.675h-5.922Z" transform="translate(34.471 0.189)" fill="#008acd"/>
      <path id="Caminho_4169" data-name="Caminho 4169" d="M138.658-16.863h10.155a12.6,12.6,0,0,1,4.2.613,7.189,7.189,0,0,1,2.792,1.718,6.639,6.639,0,0,1,1.9,5v.062a6.748,6.748,0,0,1-1.2,4.111,7.565,7.565,0,0,1-3.22,2.485l5.123,7.486h-6.873l-4.325-6.5H144.61v6.5h-5.952Zm9.879,10.309a3.6,3.6,0,0,0,2.362-.69,2.291,2.291,0,0,0,.829-1.856v-.062a2.217,2.217,0,0,0-.86-1.917,3.924,3.924,0,0,0-2.362-.63h-3.9v5.155Z" transform="translate(39.239 0.142)" fill="#008acd"/>
      <path id="Caminho_4170" data-name="Caminho 4170" d="M46.747-17.031H63.886v5.2h-11.2v3.612H62.814v4.956H52.686V4.39H46.747Z" transform="translate(13.229 0.095)" fill="#003978"/>
      <path id="Caminho_4171" data-name="Caminho 4171" d="M73.292,4.914A12.894,12.894,0,0,1,68.655,4.1a11.065,11.065,0,0,1-3.687-2.28,10.51,10.51,0,0,1-2.448-3.5,11.108,11.108,0,0,1-.889-4.485v-.06a11.043,11.043,0,0,1,.867-4.361,11.07,11.07,0,0,1,2.393-3.55,10.915,10.915,0,0,1,3.646-2.372,12.212,12.212,0,0,1,4.6-.857,13.194,13.194,0,0,1,4.91.826,13.455,13.455,0,0,1,3.781,2.3l-3.49,4.19a9.648,9.648,0,0,0-2.372-1.5,7.033,7.033,0,0,0-2.8-.52,5.139,5.139,0,0,0-2.159.457,5.423,5.423,0,0,0-1.728,1.259,6.03,6.03,0,0,0-1.164,1.864,6.142,6.142,0,0,0-.427,2.3v.06a6.508,6.508,0,0,0,.43,2.386,5.36,5.36,0,0,0,1.214,1.885A5.7,5.7,0,0,0,71.175-.64,6.048,6.048,0,0,0,73.526-.2a6.145,6.145,0,0,0,3.437-.888v-2.6H72.74V-8.031h9.855v9.64a15.612,15.612,0,0,1-4.038,2.356,13.845,13.845,0,0,1-5.265.949" transform="translate(17.441)" fill="#003978"/>
      <path id="Caminho_4172" data-name="Caminho 4172" d="M79.211-17.031h6.641L90.719-3.474l4.864-13.557H102.1L93.39,4.39H87.881Z" transform="translate(22.416 0.095)" fill="#003978"/>
      <path id="Caminho_4173" data-name="Caminho 4173" d="M23.832-10.072l7.378-6.914h16.63L33.769-3.9Z" transform="translate(6.744 0.108)" fill="#008acd"/>
      <path id="Caminho_4174" data-name="Caminho 4174" d="M0-16.986H17.109L35.725,4.4H18.618Z" transform="translate(0 0.108)" fill="#003978"/>
    </g>
  </g>
</svg>
